<!-- Created with PixiEditor (https://pixieditor.net) -->
<svg version="1.1" viewBox="0 0 472 41" xmlns="http://www.w3.org/2000/svg">
  <path d="M93.2355 162.888L99.7863 162.888L99.7863 186.705L109.866 186.705L109.866 192.786L99.1642 192.786L93.2355 189.244L93.2355 162.888ZM129.062 162.888L122.511 162.888L122.511 186.705L112.418 186.705L112.418 192.786L123.184 192.786L129.062 189.244L129.062 162.888ZM138.277 169.909L144.878 169.909L144.878 172.143L152.571 169.909L152.571 174.796L144.878 174.796L144.878 192.735L138.277 192.735L138.277 169.909ZM169.418 173.489L163.286 169.909L155.072 169.909L155.072 174.796L162.918 174.796L162.918 192.735L169.418 192.735L169.418 173.489ZM179.277 162.888L185.662 162.888L185.662 169.909L193.571 169.909L193.571 174.898L185.662 174.898L185.662 192.837L179.277 192.837L179.277 162.888ZM210.215 173.489L204.337 169.909L195.857 169.909L195.857 174.898L203.664 174.898L203.664 192.837L210.215 192.837L210.215 173.489ZM225.786 169.909L225.786 192.837L219.235 192.837L219.235 169.909L225.786 169.909ZM225.685 167.776L219.235 167.776L219.235 162.939L225.685 162.939L225.685 167.776ZM235.277 169.909L241.878 169.909L241.878 172.143L249.571 169.909L249.571 174.796L241.878 174.796L241.878 192.735L235.277 192.735L235.277 169.909ZM266.418 173.489L260.286 169.909L252.072 169.909L252.072 174.796L259.918 174.796L259.918 192.735L266.418 192.735L266.418 173.489ZM275.235 195.122L275.235 199.337L281.317 202.929L289.53 202.929L289.53 197.47L281.939 197.47L281.939 195.122L275.235 195.122ZM275.235 173.489L281.317 169.909L289.53 169.909L289.53 174.898L281.837 174.898L281.837 185.664L289.53 185.664L289.53 189.878L281.317 189.878L275.235 186.235L275.235 173.489ZM306.479 169.909L292.133 169.909L292.133 174.898L299.877 174.898L299.877 185.664L292.133 185.664L292.133 189.878L299.877 189.878L299.877 197.47L292.133 197.47L292.133 202.929L300.398 202.929L306.479 199.337L306.479 169.909ZM346.644 179.418L340.499 183.01L332.184 183.01L332.184 179.011L340.029 179.011L340.029 174.746L332.184 174.746L332.184 169.858L340.499 169.858L346.644 173.489L346.644 179.418ZM346.644 185.562L346.644 189.193L340.499 192.786L332.184 192.786L332.184 187.276L339.826 187.276L339.826 185.562L346.644 185.562ZM315.235 189.193L321.367 192.786L329.632 192.786L329.632 187.276L321.786 187.276L321.786 183.01L329.632 183.01L329.632 179.011L321.786 179.011L321.786 174.746L329.632 174.746L329.632 169.858L321.367 169.858L315.235 173.489L315.235 189.193ZM386.225 192.786L372.082 192.786L372.082 187.327L379.674 187.327L379.674 174.847L371.866 174.847L371.866 170.01L379.674 170.01L379.674 162.837L386.225 162.837L386.225 192.786ZM355.235 173.603L361.164 170.01L369.581 170.01L369.581 174.847L361.57 174.847L361.57 187.327L369.378 187.327L369.378 192.786L361.164 192.786L355.235 189.193L355.235 173.603ZM411.235 166.468L417.317 162.888L428.082 162.888L428.082 168.766L417.989 168.766L417.989 186.705L427.866 186.705L427.866 192.786L417.317 192.786L411.235 189.244L411.235 166.468ZM440.511 183.112L440.511 186.705L430.621 186.705L430.621 192.786L441.184 192.786L447.265 189.244L447.265 183.112L440.511 183.112ZM447.265 172.397L447.265 166.468L441.184 162.888L430.418 162.888L430.418 168.766L440.511 168.766L440.511 172.397L447.265 172.397ZM455.235 173.489L461.317 169.909L469.53 169.909L469.53 174.796L461.735 174.796L461.735 187.174L469.53 187.174L469.53 192.735L461.317 192.735L455.235 189.142L455.235 173.489ZM485.755 173.489L479.674 169.909L471.409 169.909L471.409 174.796L479.255 174.796L479.255 187.174L471.409 187.174L471.409 192.735L479.674 192.735L485.755 189.142L485.755 173.489ZM494.235 195.122L494.235 199.337L500.317 202.929L508.53 202.929L508.53 197.47L500.939 197.47L500.939 195.122L494.235 195.122ZM494.235 173.489L500.317 169.909L508.53 169.909L508.53 174.898L500.837 174.898L500.837 185.664L508.53 185.664L508.53 189.878L500.317 189.878L494.235 186.235L494.235 173.489ZM525.479 169.909L511.133 169.909L511.133 174.898L518.877 174.898L518.877 185.664L511.133 185.664L511.133 189.878L518.877 189.878L518.877 197.47L511.133 197.47L511.133 202.929L519.398 202.929L525.479 199.337L525.479 169.909ZM565.225 189.193L559.296 192.786L550.917 192.786L550.917 187.327L558.928 187.327L558.928 183.112L551.082 183.112L551.082 179.062L559.296 179.062L565.225 182.693L565.225 189.193ZM534.235 173.654L540.164 170.061L548.581 170.061L548.581 174.898L540.786 174.898L540.786 179.062L548.581 179.062L548.581 183.112L540.164 183.112L534.235 179.532L534.235 173.654ZM540.786 185.562L540.786 187.327L548.581 187.327L548.581 192.786L540.164 192.786L534.235 189.193L534.235 185.562L540.786 185.562ZM558.725 177.132L558.725 174.898L550.917 174.898L550.917 170.061L559.296 170.061L565.225 173.654L565.225 177.132L558.725 177.132Z" fill-rule="nonzero" transform="matrix(1, 0, 0, 1, -93.23549, -162.83748)" fill="#ffffff" stroke="#ffffff" stroke-width="0" stroke-linecap="round" stroke-linejoin="round" />
</svg>