<!-- Created with PixiEditor (https://pixieditor.net) -->
<svg version="1.1" viewBox="0 0 472 41" xmlns="http://www.w3.org/2000/svg">
  <path d="M376.354 -0.703566L374.974 -0.703566L374.974 2.86264C374.912 2.8712 374.853 2.87975 374.791 2.8883C374.534 2.92593 374.28 2.9704 374.026 3.02171C373.772 3.07132 373.518 3.12776 373.267 3.19105C373.017 3.25433 372.768 3.32275 372.52 3.39801C372.272 3.47326 372.025 3.55536 371.782 3.64259C371.562 3.72127 371.343 3.80508 371.126 3.89403L369.342 0.80502L365.639 2.94475L367.423 6.03204C367.306 6.12269 367.19 6.21506 367.075 6.30913C366.875 6.47333 366.679 6.64266 366.487 6.81541C366.295 6.98987 366.107 7.16775 365.924 7.35077C365.741 7.53378 365.563 7.72193 365.389 7.9135C365.216 8.10506 365.047 8.30176 364.883 8.50188C364.789 8.61647 364.696 8.73278 364.605 8.84909L361.518 7.06513L359.378 10.7682L362.467 12.5521C362.379 12.7694 362.295 12.9883 362.216 13.2089C362.129 13.4518 362.047 13.6981 361.971 13.9461C361.896 14.1941 361.828 14.4439 361.765 14.6936C361.701 14.945 361.645 15.1981 361.595 15.4513C361.544 15.7061 361.499 15.961 361.462 16.2176C361.453 16.2774 361.445 16.339 361.436 16.4006L357.87 16.4006L357.87 20.6766L361.436 20.6766C361.445 20.7382 361.453 20.7998 361.462 20.8596C361.499 21.1162 361.544 21.371 361.595 21.6259C361.645 21.879 361.701 22.1322 361.765 22.3819C361.828 22.6333 361.896 22.883 361.971 23.131C362.047 23.3791 362.129 23.6254 362.216 23.8682C362.295 24.0889 362.379 24.3078 362.467 24.525L359.38 26.3073L361.516 30.0103L364.605 28.2281C364.696 28.3461 364.789 28.4607 364.883 28.5753C365.047 28.7754 365.216 28.9721 365.389 29.1637C365.563 29.3552 365.741 29.5434 365.924 29.7264C366.107 29.9094 366.295 30.0873 366.487 30.2618C366.679 30.4345 366.875 30.6038 367.075 30.768C367.19 30.8621 367.306 30.9545 367.423 31.0451L365.639 34.1324L369.342 36.2721L371.126 33.1831C371.343 33.2721 371.562 33.3559 371.782 33.4346C372.025 33.5218 372.272 33.6039 372.52 33.6792C372.768 33.7544 373.017 33.8228 373.267 33.8861C373.518 33.9494 373.772 34.0058 374.025 34.0555C374.28 34.1068 374.534 34.1512 374.791 34.1889C374.851 34.1974 374.912 34.206 374.974 34.2145L374.974 37.7807L376.354 37.7807L376.354 30.0586C376.229 30.0503 376.104 30.0405 375.98 30.0291C375.792 30.0103 375.605 29.9864 375.419 29.959C375.231 29.9316 375.046 29.8992 374.859 29.8615C374.675 29.8256 374.49 29.7846 374.307 29.7384C374.124 29.6922 373.941 29.6409 373.761 29.5861C373.58 29.5314 373.4 29.4733 373.223 29.4083C373.045 29.345 372.869 29.2766 372.694 29.2047C372.52 29.1329 372.347 29.0559 372.176 28.9755C372.005 28.8951 371.837 28.8096 371.67 28.7207C371.504 28.6317 371.339 28.5377 371.177 28.4419C371.014 28.3444 370.855 28.2435 370.698 28.1374C370.541 28.0331 370.387 27.9236 370.234 27.8124C370.082 27.6996 369.933 27.5833 369.788 27.4635C369.641 27.3438 369.499 27.2206 369.359 27.0924C369.219 26.9658 369.082 26.8358 368.948 26.7024C368.815 26.569 368.685 26.4321 368.558 26.2919C368.49 26.2166 368.421 26.1414 368.356 26.0644L373.739 22.9566C373.831 23.0284 373.927 23.0951 374.025 23.1601C374.175 23.261 374.331 23.3551 374.492 23.4406C374.652 23.5261 374.817 23.6048 374.984 23.675C375.154 23.7434 375.325 23.8049 375.499 23.858C375.674 23.911 375.85 23.9555 376.028 23.9914C376.136 24.0121 376.245 24.0304 376.354 24.0453L376.354 19.5734C376.335 19.5595 376.316 19.5451 376.298 19.5306C376.265 19.5033 376.235 19.4759 376.206 19.4451C376.175 19.416 376.147 19.3852 376.12 19.3527C376.094 19.3202 376.069 19.286 376.046 19.2518L375.959 19.103C375.947 19.0791 375.937 19.0534 375.927 19.0295C375.911 18.9901 375.896 18.9508 375.884 18.9115C375.872 18.8721 375.862 18.8311 375.853 18.79C375.846 18.7473 375.84 18.7062 375.836 18.6634C375.831 18.6224 375.829 18.5796 375.829 18.5386C375.829 18.4975 375.831 18.4548 375.836 18.4137C375.84 18.371 375.846 18.3299 375.853 18.2872C375.862 18.2461 375.872 18.2051 375.884 18.1657C375.896 18.1264 375.911 18.087 375.927 18.0477C375.942 18.0101 375.961 17.9707 375.98 17.9348C376 17.8972 376.023 17.8613 376.046 17.8253C376.069 17.7911 376.094 17.7569 376.12 17.7244C376.147 17.6919 376.175 17.6611 376.206 17.6321C376.235 17.6013 376.265 17.5739 376.298 17.5465C376.316 17.5321 376.335 17.5177 376.354 17.5038L376.354 -0.703566ZM377.87 19.5733C377.889 19.5595 377.908 19.5451 377.926 19.5306C377.959 19.5033 377.99 19.4759 378.019 19.4451C378.049 19.416 378.077 19.3852 378.104 19.3527C378.13 19.3202 378.155 19.286 378.178 19.2518L378.263 19.103C378.275 19.0791 378.287 19.0534 378.297 19.0295C378.313 18.9901 378.328 18.9508 378.34 18.9115C378.352 18.8721 378.362 18.8311 378.371 18.79C378.378 18.7473 378.385 18.7062 378.388 18.6634C378.393 18.6224 378.395 18.5796 378.395 18.5386C378.395 18.4975 378.393 18.4548 378.388 18.4137C378.385 18.371 378.378 18.3299 378.371 18.2872C378.362 18.2461 378.352 18.2051 378.34 18.1657C378.328 18.1264 378.313 18.087 378.297 18.0477C378.282 18.0101 378.263 17.9707 378.244 17.9348C378.224 17.8972 378.202 17.8613 378.178 17.8253C378.155 17.7911 378.13 17.7569 378.104 17.7244C378.077 17.6919 378.049 17.6611 378.019 17.6321C377.99 17.6013 377.959 17.5739 377.926 17.5465C377.908 17.5321 377.889 17.5177 377.87 17.5038L377.87 -0.703566L379.25 -0.703566L379.25 2.86264C379.312 2.8712 379.372 2.87975 379.433 2.8883C379.69 2.92593 379.945 2.9704 380.198 3.02171C380.452 3.07132 380.706 3.12776 380.957 3.19105C381.207 3.25433 381.457 3.32275 381.705 3.39801C381.953 3.47326 382.199 3.55536 382.442 3.64259C382.662 3.72127 382.881 3.80508 383.099 3.89403L384.883 0.80502L388.586 2.94475L386.802 6.03204C386.918 6.12269 387.034 6.21506 387.149 6.30913C387.349 6.47333 387.546 6.64266 387.737 6.81541C387.929 6.98987 388.117 7.16775 388.3 7.35077C388.483 7.53378 388.661 7.72193 388.835 7.9135C389.008 8.10506 389.177 8.30176 389.342 8.50188C389.436 8.61647 389.528 8.73278 389.619 8.84909L392.706 7.06513L394.846 10.7682L391.757 12.5521C391.846 12.7694 391.929 12.9883 392.008 13.2089C392.095 13.4518 392.177 13.6981 392.253 13.9461C392.328 14.1941 392.396 14.4439 392.46 14.6936C392.523 14.945 392.579 15.1981 392.629 15.453C392.68 15.7061 392.725 15.961 392.762 16.2176C392.771 16.2791 392.78 16.339 392.788 16.4006L396.354 16.4006L396.354 20.6766L392.788 20.6766C392.78 20.7382 392.771 20.798 392.762 20.8596C392.725 21.1162 392.68 21.371 392.629 21.6242C392.579 21.879 392.523 22.1322 392.46 22.3836C392.396 22.635 392.328 22.883 392.253 23.131C392.177 23.3791 392.095 23.6254 392.008 23.8682C391.929 24.0889 391.846 24.3078 391.757 24.525L394.844 26.3073L392.708 30.0103L389.619 28.2281C389.528 28.3461 389.436 28.4607 389.342 28.5753C389.177 28.7754 389.008 28.9721 388.835 29.1637C388.661 29.3552 388.483 29.5434 388.3 29.7264C388.117 29.9094 387.929 30.0873 387.737 30.2618C387.546 30.4345 387.349 30.6038 387.149 30.768C387.034 30.8621 386.918 30.9545 386.802 31.0451L388.586 34.1324L384.883 36.2721L383.099 33.1831C382.881 33.2721 382.662 33.3559 382.442 33.4346C382.199 33.5218 381.953 33.6039 381.705 33.6792C381.457 33.7544 381.207 33.8228 380.957 33.8861C380.706 33.9494 380.452 34.0058 380.199 34.0555C379.945 34.1068 379.69 34.1512 379.433 34.1889C379.373 34.1974 379.312 34.206 379.25 34.2145L379.25 37.7807L377.87 37.7807L377.87 30.0586C377.995 30.0501 378.12 30.0399 378.244 30.0274C378.432 30.0103 378.619 29.9864 378.805 29.959C378.994 29.9316 379.178 29.8992 379.365 29.8615C379.549 29.8256 379.734 29.7846 379.917 29.7384C380.1 29.6922 380.283 29.6409 380.463 29.5861C380.644 29.5314 380.824 29.4733 381.002 29.4083C381.179 29.345 381.356 29.2766 381.53 29.2047C381.705 29.1329 381.877 29.0559 382.048 28.9755C382.219 28.8951 382.389 28.8096 382.555 28.7207C382.721 28.6317 382.885 28.5377 383.047 28.4419C383.21 28.3444 383.369 28.2435 383.526 28.1374C383.684 28.0331 383.837 27.9253 383.99 27.8124C384.142 27.6996 384.291 27.5833 384.436 27.4635C384.583 27.3438 384.725 27.2206 384.865 27.0924C385.006 26.9658 385.142 26.8358 385.276 26.7024C385.409 26.569 385.539 26.4321 385.666 26.2919C385.734 26.2166 385.803 26.1414 385.868 26.0644L380.485 22.9566C380.393 23.0284 380.297 23.0951 380.199 23.1601C380.049 23.261 379.893 23.3551 379.732 23.4406C379.572 23.5261 379.407 23.6048 379.24 23.675C379.07 23.7434 378.899 23.8049 378.725 23.858C378.551 23.911 378.374 23.9555 378.196 23.9914C378.089 24.0121 377.979 24.0304 377.87 24.0453L377.87 19.5733ZM365.58 19.1047C365.572 18.9166 365.567 18.7267 365.567 18.5386C365.567 18.3504 365.572 18.1606 365.58 17.9724C365.591 17.7826 365.604 17.5944 365.621 17.4063C365.64 17.2181 365.664 17.0317 365.692 16.8453C365.719 16.6571 365.751 16.4724 365.789 16.286C365.825 16.1012 365.866 15.9165 365.912 15.7335C365.958 15.5505 366.01 15.3675 366.065 15.1879C366.119 15.0066 366.177 14.827 366.242 14.6491C366.306 14.4712 366.374 14.295 366.446 14.1206C366.518 13.9461 366.595 13.7734 366.675 13.6023C366.755 13.4313 366.841 13.262 366.93 13.096C367.019 12.9301 367.113 12.7659 367.209 12.6034C367.306 12.441 367.407 12.2819 367.513 12.1245C367.618 11.9672 367.725 11.8132 367.838 11.661C367.951 11.5088 368.067 11.36 368.187 11.2146C368.307 11.0675 368.43 10.9255 368.558 10.7853C368.685 10.645 368.815 10.5082 368.948 10.3748C369.082 10.2414 369.219 10.1114 369.359 9.98481C369.499 9.85653 369.643 9.73338 369.788 9.61365C369.933 9.49392 370.082 9.37761 370.234 9.26472C370.387 9.15355 370.541 9.04408 370.698 8.93803C370.855 8.8337 371.014 8.73278 371.177 8.63529C371.339 8.53951 371.504 8.44544 371.67 8.3565C371.835 8.26755 372.005 8.18203 372.176 8.10164C372.347 8.02125 372.52 7.94428 372.694 7.87245C372.869 7.80061 373.045 7.73219 373.223 7.66891C373.4 7.60391 373.58 7.54576 373.761 7.49103C373.941 7.43629 374.124 7.38498 374.307 7.3388C374.49 7.29262 374.675 7.25156 374.859 7.21565C374.897 7.2071 374.936 7.20026 374.974 7.19341L374.974 13.4073C374.81 13.4758 374.649 13.5527 374.492 13.6365C374.331 13.7221 374.175 13.8161 374.025 13.917C373.873 14.018 373.727 14.1257 373.585 14.242C373.445 14.3566 373.31 14.4798 373.182 14.6081C373.053 14.7363 372.93 14.8715 372.816 15.0117C372.699 15.1537 372.591 15.2991 372.491 15.4513C372.39 15.6018 372.296 15.7575 372.21 15.9182C372.125 16.079 372.046 16.2432 371.976 16.4108C371.907 16.5802 371.846 16.7512 371.793 16.9257C371.74 17.1001 371.695 17.2763 371.659 17.4542C371.625 17.6321 371.598 17.8134 371.581 17.993C371.562 18.1743 371.553 18.3573 371.553 18.5386C371.553 18.7199 371.562 18.9029 371.581 19.0842C371.586 19.1407 371.593 19.1971 371.599 19.2535L366.218 22.3614C366.164 22.2057 366.112 22.0484 366.065 21.8893C366.01 21.7097 365.958 21.5267 365.912 21.3437C365.866 21.1606 365.825 20.9759 365.789 20.7912C365.751 20.6048 365.719 20.42 365.692 20.2319C365.664 20.0455 365.64 19.859 365.623 19.6709C365.604 19.4827 365.591 19.2946 365.58 19.1047ZM388.644 17.9724C388.652 18.1606 388.657 18.3504 388.657 18.5386C388.657 18.7267 388.652 18.9166 388.644 19.1047C388.633 19.2929 388.62 19.4827 388.603 19.6709C388.584 19.859 388.56 20.0455 388.533 20.2319C388.505 20.42 388.473 20.6065 388.435 20.7912C388.399 20.9759 388.358 21.1606 388.312 21.3437C388.266 21.5267 388.214 21.7097 388.16 21.8893C388.112 22.0484 388.06 22.2057 388.006 22.3614L382.625 19.2535C382.632 19.1971 382.638 19.1407 382.644 19.0842C382.662 18.9029 382.671 18.7199 382.671 18.5386C382.671 18.3573 382.662 18.1743 382.644 17.993C382.626 17.8134 382.599 17.6321 382.565 17.4542Q382.511 17.1874 382.431 16.9257C382.378 16.7512 382.317 16.5802 382.248 16.4108C382.178 16.2432 382.1 16.079 382.014 15.9182C381.929 15.7575 381.835 15.6018 381.734 15.4513C381.633 15.2991 381.525 15.1537 381.409 15.0117C381.294 14.8715 381.171 14.7363 381.043 14.6081C380.914 14.4798 380.779 14.3566 380.639 14.242C380.497 14.1257 380.352 14.018 380.199 13.917C380.049 13.8161 379.893 13.7221 379.732 13.6365C379.575 13.5527 379.414 13.4758 379.25 13.4073L379.25 7.19341C379.288 7.20026 379.327 7.2071 379.365 7.21565C379.549 7.25156 379.734 7.29262 379.917 7.3388C380.1 7.38498 380.283 7.43629 380.464 7.49103C380.644 7.54576 380.824 7.60391 381.002 7.66891C381.179 7.73219 381.356 7.80061 381.53 7.87245C381.705 7.94428 381.877 8.02125 382.048 8.10164C382.219 8.18203 382.389 8.26755 382.555 8.3565C382.721 8.44544 382.885 8.53951 383.047 8.63529C383.21 8.73278 383.369 8.8337 383.526 8.93803C383.684 9.04408 383.837 9.15355 383.99 9.26472C384.142 9.37761 384.291 9.49392 384.436 9.61365C384.583 9.73338 384.725 9.85653 384.865 9.98481C385.006 10.1114 385.142 10.2414 385.276 10.3748C385.409 10.5082 385.539 10.645 385.666 10.7853C385.794 10.9255 385.917 11.0675 386.037 11.2146C386.157 11.36 386.273 11.5088 386.386 11.661C386.497 11.8132 386.607 11.9672 386.713 12.1245C386.817 12.2819 386.918 12.441 387.014 12.6034C387.111 12.7659 387.205 12.9301 387.294 13.096C387.383 13.262 387.469 13.4313 387.549 13.6023C387.629 13.7734 387.706 13.9461 387.778 14.1206C387.85 14.295 387.919 14.4712 387.982 14.6491C388.047 14.827 388.105 15.0066 388.16 15.1862C388.214 15.3675 388.266 15.5505 388.312 15.7335C388.358 15.9165 388.399 16.1012 388.435 16.286C388.473 16.4707 388.505 16.6571 388.533 16.8453C388.56 17.0317 388.584 17.2181 388.603 17.4063C388.62 17.5944 388.633 17.7843 388.644 17.9724Z" fill-rule="evenodd" transform="matrix(1, 0, 0, 1, 0, 0)" fill="#ffffff" stroke="#ffffff" stroke-width="0" stroke-linecap="butt" stroke-linejoin="round" />
  <path d="M7.62939e-06 0.0505219L6.55081 0.0505219L6.55081 23.8675L16.6305 23.8675L16.6305 29.9485L5.92871 29.9485L7.62939e-06 26.4065L7.62939e-06 0.0505219ZM35.8265 0.0505219L29.2755 0.0505219L29.2755 23.8675L19.1825 23.8675L19.1825 29.9485L29.9485 29.9485L35.8265 26.4065L35.8265 0.0505219ZM45.0415 7.07152L51.6425 7.07152L51.6425 9.30553L59.3355 7.07152L59.3355 11.9585L51.6425 11.9585L51.6425 29.8975L45.0415 29.8975L45.0415 7.07152ZM76.1825 10.6515L70.0505 7.07152L61.8365 7.07152L61.8365 11.9585L69.6825 11.9585L69.6825 29.8975L76.1825 29.8975L76.1825 10.6515ZM86.0415 0.0505219L92.4265 0.0505219L92.4265 7.07152L100.336 7.07152L100.336 12.0605L92.4265 12.0605L92.4265 29.9995L86.0415 29.9995L86.0415 0.0505219ZM116.98 10.6515L111.102 7.07152L102.622 7.07152L102.622 12.0605L110.429 12.0605L110.429 29.9995L116.98 29.9995L116.98 10.6515ZM132.551 7.07152L132.551 29.9995L126 29.9995L126 7.07152L132.551 7.07152ZM132.45 4.93852L126 4.93852L126 0.101517L132.45 0.101517L132.45 4.93852ZM142.042 7.07152L148.643 7.07152L148.643 9.30553L156.336 7.07152L156.336 11.9585L148.643 11.9585L148.643 29.8975L142.042 29.8975L142.042 7.07152ZM173.183 10.6515L167.051 7.07152L158.837 7.07152L158.837 11.9585L166.683 11.9585L166.683 29.8975L173.183 29.8975L173.183 10.6515ZM181.999 32.2845L181.999 36.4995L188.081 40.0915L196.295 40.0915L196.295 34.6325L188.704 34.6325L188.704 32.2845L181.999 32.2845ZM181.999 10.6515L188.081 7.07152L196.295 7.07152L196.295 12.0605L188.602 12.0605L188.602 22.8265L196.295 22.8265L196.295 27.0405L188.081 27.0405L181.999 23.3975L181.999 10.6515ZM213.244 7.07152L198.898 7.07152L198.898 12.0605L206.642 12.0605L206.642 22.8265L198.898 22.8265L198.898 27.0405L206.642 27.0405L206.642 34.6325L198.898 34.6325L198.898 40.0915L207.163 40.0915L213.244 36.4995L213.244 7.07152ZM253.409 16.5805L247.264 20.1725L238.949 20.1725L238.949 16.1735L246.794 16.1735L246.794 11.9085L238.949 11.9085L238.949 7.02052L247.264 7.02052L253.409 10.6515L253.409 16.5805ZM253.409 22.7245L253.409 26.3555L247.264 29.9485L238.949 29.9485L238.949 24.4385L246.59 24.4385L246.59 22.7245L253.409 22.7245ZM221.999 26.3555L228.132 29.9485L236.396 29.9485L236.396 24.4385L228.551 24.4385L228.551 20.1725L236.396 20.1725L236.396 16.1735L228.551 16.1735L228.551 11.9085L236.396 11.9085L236.396 7.02052L228.132 7.02052L221.999 10.6515L221.999 26.3555ZM292.99 29.9485L278.846 29.9485L278.846 24.4895L286.439 24.4895L286.439 12.0095L278.63 12.0095L278.63 7.17252L286.439 7.17252L286.439 -0.000473022L292.99 -0.000473022L292.99 29.9485ZM262 10.7655L267.929 7.17252L276.346 7.17252L276.346 12.0095L268.335 12.0095L268.335 24.4895L276.143 24.4895L276.143 29.9485L267.929 29.9485L262 26.3555L262 10.7655ZM318 3.63052L324.081 0.0505219L334.846 0.0505219L334.846 5.92853L324.754 5.92853L324.754 23.8675L334.63 23.8675L334.63 29.9485L324.081 29.9485L318 26.4065L318 3.63052ZM347.276 20.2745L347.276 23.8675L337.385 23.8675L337.385 29.9485L347.948 29.9485L354.03 26.4065L354.03 20.2745L347.276 20.2745ZM354.03 9.55952L354.03 3.63052L347.948 0.0505219L337.182 0.0505219L337.182 5.92853L347.276 5.92853L347.276 9.55952L354.03 9.55952ZM401 32.2845L401 36.4995L407.081 40.0915L415.294 40.0915L415.294 34.6325L407.703 34.6325L407.703 32.2845L401 32.2845ZM401 10.6515L407.081 7.07152L415.294 7.07152L415.294 12.0605L407.602 12.0605L407.602 22.8265L415.294 22.8265L415.294 27.0405L407.081 27.0405L401 23.3975L401 10.6515ZM432.244 7.07152L417.898 7.07152L417.898 12.0605L425.642 12.0605L425.642 22.8265L417.898 22.8265L417.898 27.0405L425.642 27.0405L425.642 34.6325L417.898 34.6325L417.898 40.0915L426.163 40.0915L432.244 36.4995L432.244 7.07152ZM471.99 26.3555L466.061 29.9485L457.682 29.9485L457.682 24.4895L465.693 24.4895L465.693 20.2745L457.846 20.2745L457.846 16.2245L466.061 16.2245L471.99 19.8555L471.99 26.3555ZM441 10.8165L446.929 7.22353L455.346 7.22353L455.346 12.0605L447.551 12.0605L447.551 16.2245L455.346 16.2245L455.346 20.2745L446.929 20.2745L441 16.6945L441 10.8165ZM447.551 22.7245L447.551 24.4895L455.346 24.4895L455.346 29.9485L446.929 29.9485L441 26.3555L441 22.7245L447.551 22.7245ZM465.49 14.2945L465.49 12.0605L457.682 12.0605L457.682 7.22353L466.061 7.22353L471.99 10.8165L471.99 14.2945L465.49 14.2945Z" fill-rule="nonzero" transform="matrix(1, 0, 0, 1, 0, 0)" fill="#ffffff" stroke="#ffffff" stroke-width="0" stroke-linecap="round" stroke-linejoin="round" />
</svg>